<mxfile host="drawio-plugin" modified="2023-04-24T09:54:44.860Z" agent="5.0 (Macintosh; Intel Mac OS X 10_15_7) AppleWebKit/537.36 (KHTML, like Gecko) Chrome/104.0.5112.102 Safari/537.36" version="20.5.3" etag="p2ceKQo1GRsP36rFvsry" type="embed"><diagram id="b1NvUZ8Rzt5pnSlJMmET" name="Page-1"><mxGraphModel dx="1144" dy="759" grid="1" gridSize="10" guides="1" tooltips="1" connect="1" arrows="1" fold="1" page="1" pageScale="1" pageWidth="850" pageHeight="1100" math="0" shadow="0"><root><mxCell id="0"/><mxCell id="1" parent="0"/><mxCell id="4" value="FrontEnd" style="rounded=0;whiteSpace=wrap;html=1;" vertex="1" parent="1"><mxGeometry x="60" y="390" width="120" height="270" as="geometry"/></mxCell><mxCell id="5" value="BackEnd" style="rounded=0;whiteSpace=wrap;html=1;" vertex="1" parent="1"><mxGeometry x="790" y="390" width="120" height="270" as="geometry"/></mxCell><mxCell id="6" value="" style="rounded=0;whiteSpace=wrap;html=1;" vertex="1" parent="1"><mxGeometry x="270" y="90" width="490" height="330" as="geometry"/></mxCell><mxCell id="7" value="" style="shape=flexArrow;endArrow=classic;startArrow=classic;html=1;rounded=0;exitX=1;exitY=0;exitDx=0;exitDy=0;entryX=0;entryY=0.5;entryDx=0;entryDy=0;" edge="1" parent="1" source="4" target="6"><mxGeometry width="100" height="100" relative="1" as="geometry"><mxPoint x="210" y="310" as="sourcePoint"/><mxPoint x="310" y="210" as="targetPoint"/></mxGeometry></mxCell><mxCell id="9" value="" style="shape=flexArrow;endArrow=classic;startArrow=classic;html=1;rounded=0;entryX=0;entryY=0;entryDx=0;entryDy=0;exitX=1;exitY=0.5;exitDx=0;exitDy=0;" edge="1" parent="1" source="6" target="5"><mxGeometry width="100" height="100" relative="1" as="geometry"><mxPoint x="390" y="480" as="sourcePoint"/><mxPoint x="490" y="380" as="targetPoint"/></mxGeometry></mxCell><mxCell id="10" value="" style="shape=flexArrow;endArrow=classic;startArrow=classic;html=1;rounded=0;exitX=1;exitY=0.5;exitDx=0;exitDy=0;entryX=0;entryY=0.5;entryDx=0;entryDy=0;" edge="1" parent="1" source="4" target="5"><mxGeometry width="100" height="100" relative="1" as="geometry"><mxPoint x="390" y="480" as="sourcePoint"/><mxPoint x="490" y="380" as="targetPoint"/></mxGeometry></mxCell><mxCell id="12" value="f" style="ellipse;whiteSpace=wrap;html=1;" vertex="1" parent="1"><mxGeometry x="300" y="120" width="120" height="80" as="geometry"/></mxCell><mxCell id="13" value="Text" style="text;html=1;strokeColor=none;fillColor=none;align=center;verticalAlign=middle;whiteSpace=wrap;rounded=0;" vertex="1" parent="1"><mxGeometry x="410" y="420" width="60" height="30" as="geometry"/></mxCell></root></mxGraphModel></diagram></mxfile>